<svg version="1.1" xmlns="http://www.w3.org/2000/svg" width="1024px" height="1024px" viewBox="0 0 1085 1085"  preserveAspectRatio="xMinYMin meet"><rect width="100%" height="100%" fill="#ffffff" cx="0" cy="0"/><path d="M35,35l35,0 0,35 -35,0 0,-35z M70,35l35,0 0,35 -35,0 0,-35z M105,35l35,0 0,35 -35,0 0,-35z M140,35l35,0 0,35 -35,0 0,-35z M175,35l35,0 0,35 -35,0 0,-35z M210,35l35,0 0,35 -35,0 0,-35z M245,35l35,0 0,35 -35,0 0,-35z M350,35l35,0 0,35 -35,0 0,-35z M385,35l35,0 0,35 -35,0 0,-35z M420,35l35,0 0,35 -35,0 0,-35z M525,35l35,0 0,35 -35,0 0,-35z M630,35l35,0 0,35 -35,0 0,-35z M665,35l35,0 0,35 -35,0 0,-35z M805,35l35,0 0,35 -35,0 0,-35z M840,35l35,0 0,35 -35,0 0,-35z M875,35l35,0 0,35 -35,0 0,-35z M910,35l35,0 0,35 -35,0 0,-35z M945,35l35,0 0,35 -35,0 0,-35z M980,35l35,0 0,35 -35,0 0,-35z M1015,35l35,0 0,35 -35,0 0,-35z M35,70l35,0 0,35 -35,0 0,-35z M245,70l35,0 0,35 -35,0 0,-35z M420,70l35,0 0,35 -35,0 0,-35z M455,70l35,0 0,35 -35,0 0,-35z M525,70l35,0 0,35 -35,0 0,-35z M630,70l35,0 0,35 -35,0 0,-35z M735,70l35,0 0,35 -35,0 0,-35z M805,70l35,0 0,35 -35,0 0,-35z M1015,70l35,0 0,35 -35,0 0,-35z M35,105l35,0 0,35 -35,0 0,-35z M105,105l35,0 0,35 -35,0 0,-35z M140,105l35,0 0,35 -35,0 0,-35z M175,105l35,0 0,35 -35,0 0,-35z M245,105l35,0 0,35 -35,0 0,-35z M350,105l35,0 0,35 -35,0 0,-35z M385,105l35,0 0,35 -35,0 0,-35z M420,105l35,0 0,35 -35,0 0,-35z M525,105l35,0 0,35 -35,0 0,-35z M665,105l35,0 0,35 -35,0 0,-35z M700,105l35,0 0,35 -35,0 0,-35z M735,105l35,0 0,35 -35,0 0,-35z M805,105l35,0 0,35 -35,0 0,-35z M875,105l35,0 0,35 -35,0 0,-35z M910,105l35,0 0,35 -35,0 0,-35z M945,105l35,0 0,35 -35,0 0,-35z M1015,105l35,0 0,35 -35,0 0,-35z M35,140l35,0 0,35 -35,0 0,-35z M105,140l35,0 0,35 -35,0 0,-35z M140,140l35,0 0,35 -35,0 0,-35z M175,140l35,0 0,35 -35,0 0,-35z M245,140l35,0 0,35 -35,0 0,-35z M315,140l35,0 0,35 -35,0 0,-35z M385,140l35,0 0,35 -35,0 0,-35z M420,140l35,0 0,35 -35,0 0,-35z M490,140l35,0 0,35 -35,0 0,-35z M525,140l35,0 0,35 -35,0 0,-35z M630,140l35,0 0,35 -35,0 0,-35z M700,140l35,0 0,35 -35,0 0,-35z M735,140l35,0 0,35 -35,0 0,-35z M805,140l35,0 0,35 -35,0 0,-35z M875,140l35,0 0,35 -35,0 0,-35z M910,140l35,0 0,35 -35,0 0,-35z M945,140l35,0 0,35 -35,0 0,-35z M1015,140l35,0 0,35 -35,0 0,-35z M35,175l35,0 0,35 -35,0 0,-35z M105,175l35,0 0,35 -35,0 0,-35z M140,175l35,0 0,35 -35,0 0,-35z M175,175l35,0 0,35 -35,0 0,-35z M245,175l35,0 0,35 -35,0 0,-35z M315,175l35,0 0,35 -35,0 0,-35z M385,175l35,0 0,35 -35,0 0,-35z M455,175l35,0 0,35 -35,0 0,-35z M525,175l35,0 0,35 -35,0 0,-35z M630,175l35,0 0,35 -35,0 0,-35z M665,175l35,0 0,35 -35,0 0,-35z M700,175l35,0 0,35 -35,0 0,-35z M805,175l35,0 0,35 -35,0 0,-35z M875,175l35,0 0,35 -35,0 0,-35z M910,175l35,0 0,35 -35,0 0,-35z M945,175l35,0 0,35 -35,0 0,-35z M1015,175l35,0 0,35 -35,0 0,-35z M35,210l35,0 0,35 -35,0 0,-35z M245,210l35,0 0,35 -35,0 0,-35z M350,210l35,0 0,35 -35,0 0,-35z M385,210l35,0 0,35 -35,0 0,-35z M595,210l35,0 0,35 -35,0 0,-35z M630,210l35,0 0,35 -35,0 0,-35z M665,210l35,0 0,35 -35,0 0,-35z M735,210l35,0 0,35 -35,0 0,-35z M805,210l35,0 0,35 -35,0 0,-35z M1015,210l35,0 0,35 -35,0 0,-35z M35,245l35,0 0,35 -35,0 0,-35z M70,245l35,0 0,35 -35,0 0,-35z M105,245l35,0 0,35 -35,0 0,-35z M140,245l35,0 0,35 -35,0 0,-35z M175,245l35,0 0,35 -35,0 0,-35z M210,245l35,0 0,35 -35,0 0,-35z M245,245l35,0 0,35 -35,0 0,-35z M315,245l35,0 0,35 -35,0 0,-35z M385,245l35,0 0,35 -35,0 0,-35z M455,245l35,0 0,35 -35,0 0,-35z M525,245l35,0 0,35 -35,0 0,-35z M595,245l35,0 0,35 -35,0 0,-35z M665,245l35,0 0,35 -35,0 0,-35z M735,245l35,0 0,35 -35,0 0,-35z M805,245l35,0 0,35 -35,0 0,-35z M840,245l35,0 0,35 -35,0 0,-35z M875,245l35,0 0,35 -35,0 0,-35z M910,245l35,0 0,35 -35,0 0,-35z M945,245l35,0 0,35 -35,0 0,-35z M980,245l35,0 0,35 -35,0 0,-35z M1015,245l35,0 0,35 -35,0 0,-35z M350,280l35,0 0,35 -35,0 0,-35z M455,280l35,0 0,35 -35,0 0,-35z M735,280l35,0 0,35 -35,0 0,-35z M35,315l35,0 0,35 -35,0 0,-35z M70,315l35,0 0,35 -35,0 0,-35z M210,315l35,0 0,35 -35,0 0,-35z M245,315l35,0 0,35 -35,0 0,-35z M280,315l35,0 0,35 -35,0 0,-35z M350,315l35,0 0,35 -35,0 0,-35z M385,315l35,0 0,35 -35,0 0,-35z M455,315l35,0 0,35 -35,0 0,-35z M490,315l35,0 0,35 -35,0 0,-35z M525,315l35,0 0,35 -35,0 0,-35z M560,315l35,0 0,35 -35,0 0,-35z M630,315l35,0 0,35 -35,0 0,-35z M700,315l35,0 0,35 -35,0 0,-35z M875,315l35,0 0,35 -35,0 0,-35z M910,315l35,0 0,35 -35,0 0,-35z M35,350l35,0 0,35 -35,0 0,-35z M210,350l35,0 0,35 -35,0 0,-35z M280,350l35,0 0,35 -35,0 0,-35z M385,350l35,0 0,35 -35,0 0,-35z M560,350l35,0 0,35 -35,0 0,-35z M630,350l35,0 0,35 -35,0 0,-35z M700,350l35,0 0,35 -35,0 0,-35z M840,350l35,0 0,35 -35,0 0,-35z M875,350l35,0 0,35 -35,0 0,-35z M945,350l35,0 0,35 -35,0 0,-35z M980,350l35,0 0,35 -35,0 0,-35z M70,385l35,0 0,35 -35,0 0,-35z M105,385l35,0 0,35 -35,0 0,-35z M175,385l35,0 0,35 -35,0 0,-35z M210,385l35,0 0,35 -35,0 0,-35z M245,385l35,0 0,35 -35,0 0,-35z M280,385l35,0 0,35 -35,0 0,-35z M350,385l35,0 0,35 -35,0 0,-35z M420,385l35,0 0,35 -35,0 0,-35z M455,385l35,0 0,35 -35,0 0,-35z M490,385l35,0 0,35 -35,0 0,-35z M525,385l35,0 0,35 -35,0 0,-35z M560,385l35,0 0,35 -35,0 0,-35z M665,385l35,0 0,35 -35,0 0,-35z M735,385l35,0 0,35 -35,0 0,-35z M805,385l35,0 0,35 -35,0 0,-35z M840,385l35,0 0,35 -35,0 0,-35z M875,385l35,0 0,35 -35,0 0,-35z M35,420l35,0 0,35 -35,0 0,-35z M210,420l35,0 0,35 -35,0 0,-35z M385,420l35,0 0,35 -35,0 0,-35z M420,420l35,0 0,35 -35,0 0,-35z M525,420l35,0 0,35 -35,0 0,-35z M560,420l35,0 0,35 -35,0 0,-35z M595,420l35,0 0,35 -35,0 0,-35z M665,420l35,0 0,35 -35,0 0,-35z M700,420l35,0 0,35 -35,0 0,-35z M735,420l35,0 0,35 -35,0 0,-35z M875,420l35,0 0,35 -35,0 0,-35z M910,420l35,0 0,35 -35,0 0,-35z M35,455l35,0 0,35 -35,0 0,-35z M105,455l35,0 0,35 -35,0 0,-35z M210,455l35,0 0,35 -35,0 0,-35z M245,455l35,0 0,35 -35,0 0,-35z M280,455l35,0 0,35 -35,0 0,-35z M315,455l35,0 0,35 -35,0 0,-35z M350,455l35,0 0,35 -35,0 0,-35z M385,455l35,0 0,35 -35,0 0,-35z M560,455l35,0 0,35 -35,0 0,-35z M665,455l35,0 0,35 -35,0 0,-35z M735,455l35,0 0,35 -35,0 0,-35z M805,455l35,0 0,35 -35,0 0,-35z M840,455l35,0 0,35 -35,0 0,-35z M1015,455l35,0 0,35 -35,0 0,-35z M70,490l35,0 0,35 -35,0 0,-35z M105,490l35,0 0,35 -35,0 0,-35z M140,490l35,0 0,35 -35,0 0,-35z M175,490l35,0 0,35 -35,0 0,-35z M210,490l35,0 0,35 -35,0 0,-35z M280,490l35,0 0,35 -35,0 0,-35z M350,490l35,0 0,35 -35,0 0,-35z M385,490l35,0 0,35 -35,0 0,-35z M455,490l35,0 0,35 -35,0 0,-35z M525,490l35,0 0,35 -35,0 0,-35z M560,490l35,0 0,35 -35,0 0,-35z M595,490l35,0 0,35 -35,0 0,-35z M700,490l35,0 0,35 -35,0 0,-35z M735,490l35,0 0,35 -35,0 0,-35z M805,490l35,0 0,35 -35,0 0,-35z M840,490l35,0 0,35 -35,0 0,-35z M875,490l35,0 0,35 -35,0 0,-35z M980,490l35,0 0,35 -35,0 0,-35z M1015,490l35,0 0,35 -35,0 0,-35z M35,525l35,0 0,35 -35,0 0,-35z M70,525l35,0 0,35 -35,0 0,-35z M105,525l35,0 0,35 -35,0 0,-35z M140,525l35,0 0,35 -35,0 0,-35z M175,525l35,0 0,35 -35,0 0,-35z M245,525l35,0 0,35 -35,0 0,-35z M385,525l35,0 0,35 -35,0 0,-35z M490,525l35,0 0,35 -35,0 0,-35z M525,525l35,0 0,35 -35,0 0,-35z M560,525l35,0 0,35 -35,0 0,-35z M665,525l35,0 0,35 -35,0 0,-35z M735,525l35,0 0,35 -35,0 0,-35z M770,525l35,0 0,35 -35,0 0,-35z M805,525l35,0 0,35 -35,0 0,-35z M910,525l35,0 0,35 -35,0 0,-35z M945,525l35,0 0,35 -35,0 0,-35z M35,560l35,0 0,35 -35,0 0,-35z M210,560l35,0 0,35 -35,0 0,-35z M315,560l35,0 0,35 -35,0 0,-35z M350,560l35,0 0,35 -35,0 0,-35z M385,560l35,0 0,35 -35,0 0,-35z M455,560l35,0 0,35 -35,0 0,-35z M525,560l35,0 0,35 -35,0 0,-35z M560,560l35,0 0,35 -35,0 0,-35z M595,560l35,0 0,35 -35,0 0,-35z M700,560l35,0 0,35 -35,0 0,-35z M735,560l35,0 0,35 -35,0 0,-35z M770,560l35,0 0,35 -35,0 0,-35z M805,560l35,0 0,35 -35,0 0,-35z M840,560l35,0 0,35 -35,0 0,-35z M945,560l35,0 0,35 -35,0 0,-35z M1015,560l35,0 0,35 -35,0 0,-35z M35,595l35,0 0,35 -35,0 0,-35z M70,595l35,0 0,35 -35,0 0,-35z M175,595l35,0 0,35 -35,0 0,-35z M245,595l35,0 0,35 -35,0 0,-35z M315,595l35,0 0,35 -35,0 0,-35z M455,595l35,0 0,35 -35,0 0,-35z M490,595l35,0 0,35 -35,0 0,-35z M525,595l35,0 0,35 -35,0 0,-35z M595,595l35,0 0,35 -35,0 0,-35z M630,595l35,0 0,35 -35,0 0,-35z M665,595l35,0 0,35 -35,0 0,-35z M910,595l35,0 0,35 -35,0 0,-35z M945,595l35,0 0,35 -35,0 0,-35z M35,630l35,0 0,35 -35,0 0,-35z M105,630l35,0 0,35 -35,0 0,-35z M210,630l35,0 0,35 -35,0 0,-35z M280,630l35,0 0,35 -35,0 0,-35z M315,630l35,0 0,35 -35,0 0,-35z M350,630l35,0 0,35 -35,0 0,-35z M490,630l35,0 0,35 -35,0 0,-35z M560,630l35,0 0,35 -35,0 0,-35z M595,630l35,0 0,35 -35,0 0,-35z M700,630l35,0 0,35 -35,0 0,-35z M735,630l35,0 0,35 -35,0 0,-35z M770,630l35,0 0,35 -35,0 0,-35z M805,630l35,0 0,35 -35,0 0,-35z M875,630l35,0 0,35 -35,0 0,-35z M945,630l35,0 0,35 -35,0 0,-35z M980,630l35,0 0,35 -35,0 0,-35z M1015,630l35,0 0,35 -35,0 0,-35z M35,665l35,0 0,35 -35,0 0,-35z M70,665l35,0 0,35 -35,0 0,-35z M140,665l35,0 0,35 -35,0 0,-35z M175,665l35,0 0,35 -35,0 0,-35z M210,665l35,0 0,35 -35,0 0,-35z M245,665l35,0 0,35 -35,0 0,-35z M280,665l35,0 0,35 -35,0 0,-35z M350,665l35,0 0,35 -35,0 0,-35z M385,665l35,0 0,35 -35,0 0,-35z M455,665l35,0 0,35 -35,0 0,-35z M490,665l35,0 0,35 -35,0 0,-35z M525,665l35,0 0,35 -35,0 0,-35z M560,665l35,0 0,35 -35,0 0,-35z M700,665l35,0 0,35 -35,0 0,-35z M735,665l35,0 0,35 -35,0 0,-35z M770,665l35,0 0,35 -35,0 0,-35z M805,665l35,0 0,35 -35,0 0,-35z M840,665l35,0 0,35 -35,0 0,-35z M910,665l35,0 0,35 -35,0 0,-35z M1015,665l35,0 0,35 -35,0 0,-35z M35,700l35,0 0,35 -35,0 0,-35z M140,700l35,0 0,35 -35,0 0,-35z M280,700l35,0 0,35 -35,0 0,-35z M315,700l35,0 0,35 -35,0 0,-35z M420,700l35,0 0,35 -35,0 0,-35z M525,700l35,0 0,35 -35,0 0,-35z M700,700l35,0 0,35 -35,0 0,-35z M735,700l35,0 0,35 -35,0 0,-35z M875,700l35,0 0,35 -35,0 0,-35z M35,735l35,0 0,35 -35,0 0,-35z M105,735l35,0 0,35 -35,0 0,-35z M245,735l35,0 0,35 -35,0 0,-35z M385,735l35,0 0,35 -35,0 0,-35z M420,735l35,0 0,35 -35,0 0,-35z M455,735l35,0 0,35 -35,0 0,-35z M490,735l35,0 0,35 -35,0 0,-35z M525,735l35,0 0,35 -35,0 0,-35z M560,735l35,0 0,35 -35,0 0,-35z M595,735l35,0 0,35 -35,0 0,-35z M630,735l35,0 0,35 -35,0 0,-35z M665,735l35,0 0,35 -35,0 0,-35z M700,735l35,0 0,35 -35,0 0,-35z M735,735l35,0 0,35 -35,0 0,-35z M770,735l35,0 0,35 -35,0 0,-35z M805,735l35,0 0,35 -35,0 0,-35z M840,735l35,0 0,35 -35,0 0,-35z M875,735l35,0 0,35 -35,0 0,-35z M945,735l35,0 0,35 -35,0 0,-35z M980,735l35,0 0,35 -35,0 0,-35z M1015,735l35,0 0,35 -35,0 0,-35z M315,770l35,0 0,35 -35,0 0,-35z M350,770l35,0 0,35 -35,0 0,-35z M455,770l35,0 0,35 -35,0 0,-35z M560,770l35,0 0,35 -35,0 0,-35z M630,770l35,0 0,35 -35,0 0,-35z M735,770l35,0 0,35 -35,0 0,-35z M875,770l35,0 0,35 -35,0 0,-35z M910,770l35,0 0,35 -35,0 0,-35z M35,805l35,0 0,35 -35,0 0,-35z M70,805l35,0 0,35 -35,0 0,-35z M105,805l35,0 0,35 -35,0 0,-35z M140,805l35,0 0,35 -35,0 0,-35z M175,805l35,0 0,35 -35,0 0,-35z M210,805l35,0 0,35 -35,0 0,-35z M245,805l35,0 0,35 -35,0 0,-35z M315,805l35,0 0,35 -35,0 0,-35z M350,805l35,0 0,35 -35,0 0,-35z M385,805l35,0 0,35 -35,0 0,-35z M455,805l35,0 0,35 -35,0 0,-35z M490,805l35,0 0,35 -35,0 0,-35z M560,805l35,0 0,35 -35,0 0,-35z M595,805l35,0 0,35 -35,0 0,-35z M665,805l35,0 0,35 -35,0 0,-35z M700,805l35,0 0,35 -35,0 0,-35z M735,805l35,0 0,35 -35,0 0,-35z M805,805l35,0 0,35 -35,0 0,-35z M875,805l35,0 0,35 -35,0 0,-35z M910,805l35,0 0,35 -35,0 0,-35z M945,805l35,0 0,35 -35,0 0,-35z M35,840l35,0 0,35 -35,0 0,-35z M245,840l35,0 0,35 -35,0 0,-35z M315,840l35,0 0,35 -35,0 0,-35z M350,840l35,0 0,35 -35,0 0,-35z M455,840l35,0 0,35 -35,0 0,-35z M560,840l35,0 0,35 -35,0 0,-35z M665,840l35,0 0,35 -35,0 0,-35z M735,840l35,0 0,35 -35,0 0,-35z M875,840l35,0 0,35 -35,0 0,-35z M980,840l35,0 0,35 -35,0 0,-35z M35,875l35,0 0,35 -35,0 0,-35z M105,875l35,0 0,35 -35,0 0,-35z M140,875l35,0 0,35 -35,0 0,-35z M175,875l35,0 0,35 -35,0 0,-35z M245,875l35,0 0,35 -35,0 0,-35z M595,875l35,0 0,35 -35,0 0,-35z M665,875l35,0 0,35 -35,0 0,-35z M700,875l35,0 0,35 -35,0 0,-35z M735,875l35,0 0,35 -35,0 0,-35z M770,875l35,0 0,35 -35,0 0,-35z M805,875l35,0 0,35 -35,0 0,-35z M840,875l35,0 0,35 -35,0 0,-35z M875,875l35,0 0,35 -35,0 0,-35z M910,875l35,0 0,35 -35,0 0,-35z M35,910l35,0 0,35 -35,0 0,-35z M105,910l35,0 0,35 -35,0 0,-35z M140,910l35,0 0,35 -35,0 0,-35z M175,910l35,0 0,35 -35,0 0,-35z M245,910l35,0 0,35 -35,0 0,-35z M420,910l35,0 0,35 -35,0 0,-35z M455,910l35,0 0,35 -35,0 0,-35z M560,910l35,0 0,35 -35,0 0,-35z M595,910l35,0 0,35 -35,0 0,-35z M700,910l35,0 0,35 -35,0 0,-35z M770,910l35,0 0,35 -35,0 0,-35z M840,910l35,0 0,35 -35,0 0,-35z M910,910l35,0 0,35 -35,0 0,-35z M945,910l35,0 0,35 -35,0 0,-35z M1015,910l35,0 0,35 -35,0 0,-35z M35,945l35,0 0,35 -35,0 0,-35z M105,945l35,0 0,35 -35,0 0,-35z M140,945l35,0 0,35 -35,0 0,-35z M175,945l35,0 0,35 -35,0 0,-35z M245,945l35,0 0,35 -35,0 0,-35z M350,945l35,0 0,35 -35,0 0,-35z M385,945l35,0 0,35 -35,0 0,-35z M490,945l35,0 0,35 -35,0 0,-35z M525,945l35,0 0,35 -35,0 0,-35z M560,945l35,0 0,35 -35,0 0,-35z M595,945l35,0 0,35 -35,0 0,-35z M630,945l35,0 0,35 -35,0 0,-35z M735,945l35,0 0,35 -35,0 0,-35z M770,945l35,0 0,35 -35,0 0,-35z M805,945l35,0 0,35 -35,0 0,-35z M840,945l35,0 0,35 -35,0 0,-35z M875,945l35,0 0,35 -35,0 0,-35z M910,945l35,0 0,35 -35,0 0,-35z M945,945l35,0 0,35 -35,0 0,-35z M980,945l35,0 0,35 -35,0 0,-35z M35,980l35,0 0,35 -35,0 0,-35z M245,980l35,0 0,35 -35,0 0,-35z M315,980l35,0 0,35 -35,0 0,-35z M350,980l35,0 0,35 -35,0 0,-35z M455,980l35,0 0,35 -35,0 0,-35z M525,980l35,0 0,35 -35,0 0,-35z M595,980l35,0 0,35 -35,0 0,-35z M700,980l35,0 0,35 -35,0 0,-35z M805,980l35,0 0,35 -35,0 0,-35z M840,980l35,0 0,35 -35,0 0,-35z M875,980l35,0 0,35 -35,0 0,-35z M910,980l35,0 0,35 -35,0 0,-35z M945,980l35,0 0,35 -35,0 0,-35z M1015,980l35,0 0,35 -35,0 0,-35z M35,1015l35,0 0,35 -35,0 0,-35z M70,1015l35,0 0,35 -35,0 0,-35z M105,1015l35,0 0,35 -35,0 0,-35z M140,1015l35,0 0,35 -35,0 0,-35z M175,1015l35,0 0,35 -35,0 0,-35z M210,1015l35,0 0,35 -35,0 0,-35z M245,1015l35,0 0,35 -35,0 0,-35z M315,1015l35,0 0,35 -35,0 0,-35z M385,1015l35,0 0,35 -35,0 0,-35z M420,1015l35,0 0,35 -35,0 0,-35z M490,1015l35,0 0,35 -35,0 0,-35z M595,1015l35,0 0,35 -35,0 0,-35z M630,1015l35,0 0,35 -35,0 0,-35z M665,1015l35,0 0,35 -35,0 0,-35z M700,1015l35,0 0,35 -35,0 0,-35z M875,1015l35,0 0,35 -35,0 0,-35z M910,1015l35,0 0,35 -35,0 0,-35z M945,1015l35,0 0,35 -35,0 0,-35z " stroke="transparent" fill="#000000"/></svg>